<svg xmlns="http://www.w3.org/2000/svg" width="1032" height="327.999" viewBox="0 0 10750 3417" shape-rendering="geometricPrecision" text-rendering="geometricPrecision" image-rendering="optimizeQuality" fill-rule="evenodd" clip-rule="evenodd"><defs><style>.fil1{fill:#eb2f07}.fil0{fill:#171782;fill-rule:nonzero}</style></defs><g id="x0020_1"><g id="_186733584"><path class="fil0" d="M4269 2562V1138h376l502 931h5v-931h296v1424h-338l-539-961h-6v961h-296zm1856-207c-137 0-211-133-211-311 0-152 59-311 211-311 146 0 205 156 205 308 0 188-78 313-205 313zm11-852c-314 0-520 213-520 549 0 334 218 532 502 532 260 0 512-173 512-551 0-313-199-530-494-530zm3195 852c-137 0-211-133-211-311 0-152 59-311 211-311 146 0 205 156 205 308 0 188-78 313-205 313zm505-313v-16c-3-308-201-522-494-522-314 0-520 213-520 549 0 334 218 532 502 532 258 0 509-171 512-544zm-2872-513s192 638 209 721h6c17-85 201-721 201-721h299l-313 1033h-378l-333-1033h320-10zm1058 619c8 133 142 197 292 197 110 0 209-25 296-55l42 218c-106 44-245 76-384 76-351 0-551-203-551-526 0-262 163-551 522-551 334 0 461 260 461 516 0 55-11 96-11 96l-666 31zm197-429c-135 1-190 125-199 209l381-13s-8-198-182-196z"/><path class="fil1" d="M2029 1054c73-430 414-745 788-769h92c25 2 50 4 74 9 357 61 597 424 610 801 178 63 245 366 141 674-99 297-343 574-544 694-184 249-520 514-836 615-362 116-639 8-598-259 360 317 855 21 1158-314 64 24 147 14 241-25 13-6 22-10 35-17 209-198 532-671 273-911 65-118 110-256 126-400 1-18 3-39 3-57-190-457-738-322-977 96-137-88-311-141-508-140-28 1-54 1-80 3-473 334-620 1104-37 1321-116 129-198 267-225 397-6 17-9 33-9 48-468 5-840-277-841-697 0-21 1-42 3-63 43-512 544-956 1109-1006z"/></g></g></svg>